<svg width="1920" height="1081" viewBox="0 0 1920 1081" fill="none" xmlns="http://www.w3.org/2000/svg">
<g clip-path="url(#clip0_1250_199171)">
<rect width="1920" height="1080" transform="translate(0 0.296875)" fill="#210340"/>
<path d="M1618.12 906.871C1510.41 906.167 1432.34 874.03 1329.7 843.741C1188.48 802.065 1100.16 811.78 1001.34 861.175C936.159 893.752 869.654 943.323 789.237 962.723C668.67 991.779 573.461 946.816 456.446 880.34C335.937 811.868 156.408 814.363 13.6238 908.574C9.95511 910.98 4.70159 914.708 0.09375 917.995V1024.65C127.059 1022.16 1326.39 998.94 1469.17 1005.19C1742.82 1017.17 1884.49 982.094 1920.12 971.587V810.43C1916.07 813.952 1911.47 817.943 1908.32 820.526C1829.99 884.595 1745.94 907.722 1618.12 906.871Z" fill="url(#paint0_linear_1247_199171)"/>
<path d="M1843.97 684.371C1706.06 659.072 1652.26 599.023 1512.41 599.023C1372.56 599.023 1314.54 651.881 1198.05 684.371C1122.91 705.326 1042.15 712.957 973.498 712.194C783.608 699.956 750.795 640.377 607.189 639.643C484.627 639.026 421.731 687.746 324.937 707.792C211.15 731.359 81.9254 731.036 26.9249 729.54C17.269 729.276 7.11414 728.982 0.0703125 728.777V918.021C4.67815 914.704 9.93167 911.006 13.6003 908.6C156.385 814.418 335.914 811.894 456.422 880.366C573.438 946.842 668.647 991.834 789.214 962.749C869.66 943.349 936.165 893.778 1001.32 861.2C1100.11 811.806 1188.45 802.091 1329.68 843.767C1432.31 874.055 1510.38 906.193 1618.1 906.897C1745.91 907.748 1829.97 884.621 1908.3 820.552C1911.44 817.998 1916.08 813.978 1920.1 810.456V698.165C1917.9 697.784 1915.7 697.402 1913.97 697.109C1894.07 693.616 1871.26 689.419 1843.94 684.4L1843.97 684.371Z" fill="url(#paint1_linear_1247_199171)"/>
<path d="M633.145 331.571C613.804 345.482 607.025 356.107 595.138 356.107C573.772 356.107 567.785 375.331 576.472 380.848C592.262 390.856 624.458 385.72 679.84 385.72C741.562 385.72 757.322 384.84 773.934 381.553C795.447 377.297 788.051 349.709 766.685 346.422C745.318 343.134 736.748 349.533 702.85 327.697C678.754 312.171 652.78 317.454 633.145 331.571Z" fill="url(#paint2_linear_1247_199171)"/>
<path d="M1512.28 237.356C1528.07 247.364 1560.26 242.228 1615.64 242.228C1677.37 242.228 1693.13 241.348 1709.74 238.06C1731.25 233.805 1723.86 206.216 1702.49 202.929C1681.12 199.642 1672.55 206.04 1638.65 184.205C1614.56 168.679 1588.58 173.962 1568.95 188.079C1549.61 201.99 1542.83 212.615 1530.94 212.615C1509.58 212.615 1503.59 231.838 1512.28 237.356Z" fill="url(#paint3_linear_1247_199171)"/>
<path d="M211.525 225.056C225.906 237.412 315.011 235.211 415.62 235.211C527.734 235.211 572.287 235.357 602.487 229.194C641.551 221.211 634.096 188.017 595.296 181.854C556.497 175.69 532.049 136.568 468.801 140.677C405.553 144.786 388.296 163.334 348.058 179.799C307.82 196.264 271.926 194.21 250.325 194.21C211.525 194.21 197.144 212.729 211.525 225.085V225.056Z" fill="url(#paint4_linear_1247_199171)"/>
<path d="M1870.65 865.433C1870.31 861.104 1860.67 860.019 1856.49 853.655C1855.19 851.657 1854.84 848.376 1854.83 844.787C1854.83 841.655 1855.09 838.3 1855.2 835.377C1855.47 828.495 1855.19 824.721 1855.25 813.079C1855.31 803.841 1854.16 793.605 1849.91 791.2C1845.96 788.967 1839.6 793.309 1830.56 801.621C1825.51 806.259 1822.21 810.267 1818.75 813.128C1818.54 813.301 1818.33 813.486 1818.12 813.646C1817.91 813.806 1812.75 812.462 1809.71 811.858C1809.06 811.722 1808.66 810.97 1808.33 809.613C1807.59 806.592 1807.21 800.548 1805.1 791.718C1802.5 780.729 1798.92 775.352 1793.78 774.908C1789.44 774.538 1781.9 785.477 1776.09 794.641C1771.28 802.226 1770.93 803.003 1769.05 805.728C1767.68 807.714 1766.12 810.082 1764.41 812.438C1760.9 817.309 1756.87 822.168 1752.98 823.71C1745.67 826.608 1740.02 822.699 1737.29 826.078C1734.68 829.322 1737.51 829.914 1738.11 830.469C1753.77 834.428 1757.53 855.295 1764.77 853.482C1770.95 851.941 1775.02 858.502 1787.74 860.093C1800.39 861.672 1801.83 868.492 1811.33 866.728C1831.3 863.016 1848 862.103 1867.38 869.158C1866.4 867.641 1870.89 868.208 1870.66 865.421L1870.65 865.433Z" fill="url(#paint5_linear_1250_199171)"/>
<path d="M1838.62 826.336C1845.18 833.946 1851.95 841.642 1854.84 844.787C1854.84 841.654 1855.1 838.3 1855.21 835.377C1855.48 828.495 1855.2 824.721 1855.26 813.078C1855.32 803.841 1854.17 793.604 1849.92 791.199C1845.97 788.967 1839.61 793.308 1830.57 801.621C1825.52 806.258 1822.22 810.266 1818.77 813.128C1822.88 814.608 1831.84 818.493 1838.62 826.349V826.336Z" fill="url(#paint6_linear_1250_199171)"/>
<path d="M1808.36 809.613C1807.62 806.592 1807.23 800.548 1805.13 791.718C1802.5 780.729 1798.92 775.352 1793.78 774.908C1789.44 774.538 1781.9 785.477 1776.09 794.641C1771.28 802.226 1770.93 803.003 1769.05 805.728C1767.68 807.714 1766.12 810.082 1764.41 812.437C1769.38 811.611 1778.28 810.033 1786.97 808.405C1795.54 806.814 1803.52 808.257 1808.36 809.589V809.613Z" fill="url(#paint7_linear_1250_199171)"/>
<path d="M1867.37 869.174C1848.51 862.316 1832.01 862.995 1812.5 866.534C1810.54 866.892 1808.93 867.213 1806.78 866.929C1811.14 871.579 1798.44 883.603 1783.32 880.717C1778.16 879.731 1773.99 878.152 1770.66 876.216C1759.5 869.716 1758.23 859.418 1762.29 854.164C1762.46 853.93 1762.66 853.695 1762.86 853.449C1756.72 851.685 1752.32 834.086 1738.07 830.484C1738.19 830.608 1738.22 830.719 1738.07 830.854C1736.66 832.186 1730.72 829.609 1729.25 833.457C1728.04 836.602 1734.43 837.181 1733.96 838.649C1733.32 840.647 1728.73 840.141 1728.13 842.152C1727.1 845.519 1729.29 845.309 1734.86 850.353C1737.67 852.894 1741.34 856.766 1745.89 863.106C1753.14 873.194 1753.63 896.307 1752.73 912.179C1752.29 920.122 1748.24 937.796 1747.77 947.107C1747.29 956.702 1748.29 965.336 1748.54 972.933C1748.6 976.67 1748.54 981.862 1747.66 985.55C1745.49 996.489 1739.03 998.241 1736.67 1012.62C1733.13 1034.25 1756.68 1042.38 1756.42 1042.46C1756.37 1042.47 1756.28 1042.49 1756.2 1042.5C1757.41 1042.65 1758.58 1042.79 1759.71 1042.92C1764.86 1043.55 1769.32 1044.14 1773.17 1044.69C1774.65 1044.9 1776.23 1045.09 1777.55 1045.29C1777.15 1047.66 1776.52 1050.4 1775.92 1052.17C1775.07 1054.65 1774.19 1059.17 1775.42 1061.24C1777.89 1065.41 1793.2 1064.78 1793.91 1059.86C1794.26 1057.45 1794.49 1054.52 1794.63 1051.19C1794.63 1051.19 1794.63 1051.21 1794.63 1051.22C1796.37 1051.15 1796.48 1051.17 1797.61 1051.22C1797.62 1051.72 1797.81 1056.29 1798.33 1059.84C1799.04 1064.77 1814.35 1065.39 1816.82 1061.23C1818.04 1059.17 1817.17 1054.65 1816.32 1052.16C1815.93 1051 1815.51 1049.35 1815.14 1047.66C1817.06 1047.27 1839.29 1042.73 1841.15 1042.43C1841.17 1042.34 1841.3 1042.26 1841.52 1042.17C1851.71 1038.66 1863.26 1023.05 1857.92 1008.49C1854.86 1000.15 1849.2 996.193 1846.03 990.619C1839.46 979.087 1844.48 976.386 1841.58 945.602C1840.32 932.196 1836.81 916.397 1835.38 908.221C1832.54 891.99 1836.22 892.089 1845.77 889.425C1858.12 885.984 1862.32 888.154 1863.99 884.294C1864.78 882.469 1861.83 881.186 1862.49 879.324C1863.5 876.389 1871.75 878.831 1872.35 875.784C1873.13 871.875 1868.29 870.629 1867.33 869.161L1867.37 869.174Z" fill="url(#paint8_linear_1250_199171)"/>
<path opacity="0.6" d="M1867.37 869.174C1848.51 862.316 1832.01 862.995 1812.5 866.534C1810.54 866.892 1808.93 867.213 1806.78 866.929C1811.14 871.579 1798.44 883.603 1783.32 880.717C1778.16 879.731 1773.99 878.152 1770.66 876.216C1759.5 869.716 1758.23 859.418 1762.29 854.164C1762.46 853.93 1762.66 853.695 1762.86 853.449C1756.72 851.685 1752.32 834.086 1738.07 830.484C1738.19 830.608 1738.22 830.719 1738.07 830.854C1736.66 832.186 1730.72 829.609 1729.25 833.457C1728.04 836.602 1734.43 837.181 1733.96 838.649C1733.32 840.647 1728.73 840.141 1728.13 842.152C1727.1 845.519 1729.29 845.309 1734.86 850.353C1737.67 852.894 1741.34 856.766 1745.89 863.106C1753.14 873.194 1753.63 896.307 1752.73 912.179C1752.29 920.122 1748.24 937.796 1747.77 947.107C1747.29 956.702 1748.29 965.336 1748.54 972.933C1748.6 976.67 1748.54 981.862 1747.66 985.55C1745.49 996.489 1739.03 998.241 1736.67 1012.62C1733.13 1034.25 1756.68 1042.38 1756.42 1042.46C1756.37 1042.47 1756.28 1042.49 1756.2 1042.5C1757.41 1042.65 1758.58 1042.79 1759.71 1042.92C1764.86 1043.55 1769.32 1044.14 1773.17 1044.69C1774.65 1044.9 1776.23 1045.09 1777.55 1045.29C1777.15 1047.66 1776.52 1050.4 1775.92 1052.17C1775.07 1054.65 1774.19 1059.17 1775.42 1061.24C1777.89 1065.41 1793.2 1064.78 1793.91 1059.86C1794.26 1057.45 1794.49 1054.52 1794.63 1051.19C1794.63 1051.19 1794.63 1051.21 1794.63 1051.22C1796.37 1051.15 1796.48 1051.17 1797.61 1051.22C1797.62 1051.72 1797.81 1056.29 1798.33 1059.84C1799.04 1064.77 1814.35 1065.39 1816.82 1061.23C1818.04 1059.17 1817.17 1054.65 1816.32 1052.16C1815.93 1051 1815.51 1049.35 1815.14 1047.66C1817.06 1047.27 1839.29 1042.73 1841.15 1042.43C1841.17 1042.34 1841.3 1042.26 1841.52 1042.17C1851.71 1038.66 1863.26 1023.05 1857.92 1008.49C1854.86 1000.15 1849.2 996.193 1846.03 990.619C1839.46 979.087 1844.48 976.386 1841.58 945.602C1840.32 932.196 1836.81 916.397 1835.38 908.221C1832.54 891.99 1836.22 892.089 1845.77 889.425C1858.12 885.984 1862.32 888.154 1863.99 884.294C1864.78 882.469 1861.83 881.186 1862.49 879.324C1863.5 876.389 1871.75 878.831 1872.35 875.784C1873.13 871.875 1868.29 870.629 1867.33 869.161L1867.37 869.174Z" fill="url(#paint9_linear_1250_199171)"/>
<path d="M1756.45 1042.5C1756.55 1042.48 1756.62 1042.47 1756.67 1042.45C1756.93 1042.38 1733.37 1034.25 1736.93 1012.62C1738.49 1003.05 1741.97 998.955 1745.11 993.38C1745.3 993.06 1745.46 992.714 1745.6 992.369C1745.92 991.555 1746.38 990.223 1746.73 989.249C1744.3 988.756 1741.32 987.991 1737.07 986.301C1698.64 970.946 1697.14 931.899 1699.67 894.074C1701.63 864.856 1669.24 852.375 1669.24 852.375C1669.24 852.375 1678.28 867.73 1662.46 881.938C1644.15 898.378 1626.53 921.873 1627.28 957.195C1627.32 958.848 1627.63 963.078 1627.63 963.078C1627.63 963.078 1626.41 962.486 1624.8 960.821C1622.74 958.687 1621.93 957.331 1621.93 957.331C1621.93 957.331 1621.26 967.407 1626 982.762C1633.06 1005.63 1647.71 1025.69 1670.26 1039.51C1692.24 1052.96 1710.08 1053.76 1742.4 1053.81C1742.4 1052.58 1742.94 1051.09 1744.5 1049.18C1748.91 1043.77 1754.97 1042.8 1756.45 1042.49V1042.5ZM1681.4 1012.92C1673.98 1021.78 1657.89 1013.21 1648.42 989.397C1640.96 958.996 1645.03 942.444 1644.97 942.481C1644.97 942.481 1646.12 946.514 1647.74 951.398C1649.04 955.271 1650.57 957.651 1651.1 958.416C1650.99 956.344 1651.83 947.045 1653.44 938.374C1655.61 926.707 1659.36 917.568 1659.36 917.568C1659.36 917.568 1658.98 929.618 1660.18 939.978C1662.16 957.257 1666.21 976.903 1673.52 987.251C1679.42 995.588 1688.83 1004.05 1681.4 1012.9V1012.92Z" fill="url(#paint10_linear_1250_199171)"/>
<path d="M1660.17 939.988C1658.99 929.628 1659.36 917.578 1659.36 917.578C1659.36 917.578 1655.61 926.717 1653.44 938.384C1651.82 947.054 1650.99 956.341 1651.1 958.426C1650.57 957.673 1649.04 955.281 1647.74 951.408C1646.11 946.524 1644.97 942.491 1644.97 942.491C1645.03 942.454 1640.96 959.005 1648.42 989.407C1657.89 1013.22 1673.97 1021.79 1681.4 1012.93C1688.82 1004.06 1679.41 995.61 1673.52 987.273C1666.2 976.925 1662.16 957.279 1660.17 940V939.988Z" fill="url(#paint11_linear_1250_199171)"/>
<path d="M1660.17 939.988C1658.99 929.628 1659.36 917.578 1659.36 917.578C1659.36 917.578 1655.61 926.717 1653.44 938.384C1651.82 947.054 1650.99 956.341 1651.1 958.426C1650.57 957.673 1649.04 955.281 1647.74 951.408C1646.11 946.524 1644.97 942.491 1644.97 942.491C1645.03 942.454 1640.96 959.005 1648.42 989.407C1657.89 1013.22 1673.97 1021.79 1681.4 1012.93C1688.82 1004.06 1679.41 995.61 1673.52 987.273C1666.2 976.925 1662.16 957.279 1660.17 940V939.988Z" fill="url(#paint12_linear_1250_199171)"/>
<path d="M1773.42 1044.68C1769.58 1044.14 1765.12 1043.55 1759.96 1042.92C1758.83 1042.78 1757.65 1042.64 1756.45 1042.5C1754.98 1042.81 1748.91 1043.78 1744.5 1049.18C1742.93 1051.1 1742.41 1052.59 1742.4 1053.82C1742.4 1054.65 1742.61 1055.35 1742.93 1055.98C1744.38 1058.8 1751.45 1058.53 1755.53 1057.45C1757.85 1056.83 1760.84 1056.14 1764.17 1055.47C1767.79 1054.75 1771.8 1054.06 1775.75 1053.5C1775.87 1053.06 1776.01 1052.61 1776.15 1052.16C1776.73 1050.45 1777.38 1047.73 1777.78 1045.31C1776.43 1045.11 1774.96 1044.89 1773.4 1044.67L1773.42 1044.68Z" fill="url(#paint13_linear_1250_199171)"/>
<path d="M1851.54 1049.8C1850.62 1048.67 1849.01 1047.39 1846.42 1045.88C1843.13 1043.97 1840.19 1043.13 1840.59 1042.54C1840.06 1042.63 1839.54 1042.71 1839 1042.82C1827.84 1045.08 1820.34 1046.39 1815.28 1047.11C1815.66 1049 1816.13 1050.88 1816.58 1052.16C1816.72 1052.59 1816.86 1053.03 1816.97 1053.47C1817.02 1053.65 1817.06 1053.82 1817.11 1054.01C1826.85 1055.49 1831.14 1057.34 1838.96 1057.73C1847.73 1058.18 1850.46 1057.3 1851.94 1054.67C1852.74 1053.24 1853.13 1051.74 1851.54 1049.79V1049.8Z" fill="url(#paint14_linear_1250_199171)"/>
<path opacity="0.38" d="M1777.46 1015C1773.72 1000.81 1762.22 989.749 1747.74 986.555C1747.53 987.455 1747.28 988.331 1746.98 989.182C1746.98 989.206 1746.96 989.243 1746.96 989.268C1746.52 990.526 1746.02 991.747 1745.38 992.919C1742.17 998.728 1738.54 1002.79 1736.94 1012.61C1733.4 1034.25 1756.95 1042.37 1756.69 1042.45C1756.64 1042.46 1756.55 1042.49 1756.46 1042.5C1757.67 1042.65 1758.84 1042.78 1759.98 1042.92C1765.12 1043.55 1769.59 1044.14 1773.43 1044.68C1775.91 1040.43 1777.63 1035.67 1778.36 1030.6C1778.22 1025.84 1777.91 1020.52 1777.48 1014.98L1777.46 1015Z" fill="url(#paint15_radial_1250_199171)"/>
<path d="M1793.14 1000.6C1792.37 1001.53 1791.92 1007.52 1790.93 1008.03C1790.14 1008.42 1789.74 1003.32 1788.93 998.704C1788.71 997.458 1787.87 993.413 1787.65 992.229C1786.61 986.457 1786.61 986.913 1785.75 982.202C1785.58 985.963 1785.23 986.962 1784.54 992.734C1784.21 995.534 1783.73 998.901 1783.33 1000.76C1782.99 1002.39 1782.46 996.336 1782.12 994.745C1780.52 987.024 1779.41 984.964 1777.24 977.281C1776.02 972.939 1772.18 968.931 1771.81 966.156C1773.56 978.008 1776.08 997.631 1777.44 1015.01C1777.87 1020.55 1778.19 1025.86 1778.31 1030.62C1778.44 1035.2 1778.4 1039.27 1778.14 1042.55C1778.08 1043.35 1777.94 1044.32 1777.77 1045.35C1777.36 1047.77 1776.72 1050.49 1776.14 1052.19C1775.99 1052.64 1775.86 1053.09 1775.73 1053.54C1774.83 1056.83 1774.83 1059.89 1775.65 1061.27C1778.11 1065.44 1793.42 1064.81 1794.14 1059.89C1794.48 1057.48 1794.72 1054.54 1794.85 1051.19C1795.37 1038.61 1794.49 1020.14 1793.1 1000.63L1793.14 1000.6Z" fill="url(#paint16_linear_1250_199171)"/>
<path d="M1816.97 1053.48C1816.84 1053.05 1816.72 1052.62 1816.57 1052.17C1816.13 1050.88 1815.66 1049 1815.28 1047.13C1814.94 1045.46 1814.67 1043.8 1814.57 1042.53C1813.19 1025.16 1818.06 985.413 1820.91 966.148C1820.54 968.923 1816.71 972.932 1815.49 977.273C1813.33 984.957 1812.21 987.016 1810.6 994.737C1810.27 996.328 1809.74 1002.38 1809.39 1000.76C1809 998.893 1808.52 995.538 1808.19 992.726C1807.49 986.955 1807.15 985.956 1806.98 982.194C1806.11 986.905 1806.11 986.461 1805.08 992.221C1804.87 993.417 1804.02 997.45 1803.8 998.696C1802.98 1003.31 1802.6 1008.41 1801.8 1008.02C1800.8 1007.51 1800.35 1001.52 1799.59 1000.6C1798.2 1020.11 1797.32 1038.58 1797.84 1051.15C1797.97 1054.49 1798.21 1057.44 1798.55 1059.84C1799.27 1064.76 1814.57 1065.39 1817.04 1061.23C1817.81 1059.93 1817.84 1057.09 1817.08 1054.01C1817.03 1053.83 1816.99 1053.65 1816.94 1053.47L1816.97 1053.48Z" fill="url(#paint17_linear_1250_199171)"/>
<path opacity="0.6" d="M1794.83 908.786C1794.83 908.786 1778.64 920.761 1782.99 948.721C1786.48 971.105 1789.36 976.285 1791.55 990.493C1793.76 1004.7 1796.12 1021.1 1796.12 1021.1C1796.12 1021.1 1798.1 1005.24 1800.78 990.123C1802.69 979.319 1806.53 964.778 1808.57 947.302C1811.88 919.158 1794.82 908.773 1794.82 908.773L1794.83 908.786Z" fill="url(#paint18_linear_1250_199171)"/>
<path d="M1778.97 845.983C1788.25 847.228 1794.86 861.572 1805.2 865.864C1813.45 869.292 1799.82 883.87 1783.34 880.725C1761.16 876.495 1756.9 861.177 1762.33 854.172C1765.24 850.41 1771.17 844.934 1778.98 845.983H1778.97Z" fill="#FFC635"/>
<path d="M1778.46 848.316C1775.08 847.255 1772.8 848.118 1771.85 849.302C1770.68 850.758 1771.05 854.667 1775.21 855.975C1779.15 857.22 1782.42 854.692 1782.47 852.694C1782.51 851.276 1781.45 849.253 1778.46 848.316Z" fill="#200041"/>
<path d="M1805.09 847.922C1803.15 852.387 1805.66 855.396 1807.65 855.951C1811.48 857.024 1814.02 857.271 1816.58 851.425C1819.85 843.988 1818.32 840.621 1814.26 839.523C1810.01 838.376 1807.73 841.829 1805.09 847.922Z" fill="url(#paint19_linear_1250_199171)"/>
<path d="M1805.09 847.922C1803.15 852.387 1805.66 855.396 1807.65 855.951C1811.48 857.024 1814.02 857.271 1816.58 851.425C1819.85 843.988 1818.32 840.621 1814.26 839.523C1810.01 838.376 1807.73 841.829 1805.09 847.922Z" fill="url(#paint20_linear_1250_199171)"/>
<path d="M1811.5 844.996C1811.1 845.983 1809.96 846.538 1808.98 846.242C1807.99 845.946 1807.52 844.898 1807.93 843.911C1808.33 842.925 1809.47 842.37 1810.46 842.666C1811.44 842.962 1811.91 844.01 1811.5 844.996Z" fill="white"/>
<path d="M1771.83 833.28C1769.05 839.187 1771.75 841.309 1773.74 841.876C1777.55 842.949 1780.02 843.023 1782.08 838.719C1785.37 831.837 1785.74 827.2 1780.4 826.028C1777.03 825.288 1774.08 828.495 1771.83 833.292V833.28Z" fill="url(#paint21_linear_1250_199171)"/>
<path d="M1778.56 831.725C1778.14 832.737 1776.98 833.316 1775.97 833.008C1774.96 832.7 1774.47 831.627 1774.89 830.616C1775.31 829.604 1776.47 829.025 1777.48 829.333C1778.5 829.641 1778.98 830.714 1778.56 831.725Z" fill="white"/>
</g>
<defs>
<linearGradient id="paint0_linear_1250_199171" x1="1509.63" y1="384.298" x2="1456.24" y2="240.561" gradientUnits="userSpaceOnUse">
<stop stop-color="#FCEEDE"/>
<stop offset="1" stop-color="white"/>
</linearGradient>
<linearGradient id="paint1_linear_1250_199171" x1="377.13" y1="401.215" x2="268.176" y2="107.87" gradientUnits="userSpaceOnUse">
<stop stop-color="#FCEEDE"/>
<stop offset="1" stop-color="white"/>
</linearGradient>
<linearGradient id="paint2_linear_1250_199171" x1="1707.46" y1="230.615" x2="1640.55" y2="61.916" gradientUnits="userSpaceOnUse">
<stop stop-color="#FCEEDE"/>
<stop offset="1" stop-color="white"/>
</linearGradient>
<linearGradient id="paint3_linear_1250_199171" x1="910.756" y1="865.295" x2="902.917" y2="630.899" gradientUnits="userSpaceOnUse">
<stop stop-color="#FFF4EE"/>
<stop offset="0.264423" stop-color="#FCEBEF"/>
<stop offset="0.57" stop-color="#F7D3F4"/>
<stop offset="1" stop-color="#EEAEFC"/>
</linearGradient>
<linearGradient id="paint4_linear_1250_199171" x1="1306.17" y1="1003.15" x2="1312.2" y2="576.484" gradientUnits="userSpaceOnUse">
<stop stop-color="#FFF4EE"/>
<stop offset="0.22" stop-color="#FCEBEF"/>
<stop offset="0.57" stop-color="#F7D3F4"/>
<stop offset="1" stop-color="#EEAEFC"/>
</linearGradient>
<linearGradient id="paint5_linear_1250_199171" x1="1827.49" y1="773.144" x2="1781.83" y2="913.372" gradientUnits="userSpaceOnUse">
<stop offset="0.17" stop-color="#FF6600"/>
<stop offset="0.54" stop-color="#FF9C00"/>
<stop offset="0.9" stop-color="#FF6700"/>
<stop offset="0.91" stop-color="#FF6600"/>
</linearGradient>
<linearGradient id="paint6_linear_1250_199171" x1="1839.83" y1="824.408" x2="1864.23" y2="785.75" gradientUnits="userSpaceOnUse">
<stop stop-color="#FF6600" stop-opacity="0"/>
<stop offset="0.11" stop-color="#FF6600" stop-opacity="0.3"/>
<stop offset="0.23" stop-color="#FF6600" stop-opacity="0.6"/>
<stop offset="0.32" stop-color="#FF6600" stop-opacity="0.82"/>
<stop offset="0.4" stop-color="#FF6600" stop-opacity="0.95"/>
<stop offset="0.43" stop-color="#FF6600"/>
<stop offset="0.72" stop-color="#FD4737"/>
<stop offset="1" stop-color="#FB2872"/>
</linearGradient>
<linearGradient id="paint7_linear_1250_199171" x1="1786.6" y1="807.683" x2="1792.03" y2="762.197" gradientUnits="userSpaceOnUse">
<stop stop-color="#FF6600" stop-opacity="0"/>
<stop offset="0.03" stop-color="#FF6600" stop-opacity="0.17"/>
<stop offset="0.07" stop-color="#FF6600" stop-opacity="0.36"/>
<stop offset="0.11" stop-color="#FF6600" stop-opacity="0.53"/>
<stop offset="0.15" stop-color="#FF6600" stop-opacity="0.68"/>
<stop offset="0.2" stop-color="#FF6600" stop-opacity="0.8"/>
<stop offset="0.24" stop-color="#FF6600" stop-opacity="0.89"/>
<stop offset="0.29" stop-color="#FF6600" stop-opacity="0.95"/>
<stop offset="0.35" stop-color="#FF6600" stop-opacity="0.99"/>
<stop offset="0.42" stop-color="#FF6600"/>
<stop offset="0.7" stop-color="#FD4737"/>
<stop offset="0.97" stop-color="#FB2872"/>
</linearGradient>
<linearGradient id="paint8_linear_1250_199171" x1="1800.19" y1="826.217" x2="1800.19" y2="1078.31" gradientUnits="userSpaceOnUse">
<stop stop-color="#FF6600"/>
<stop offset="0.01" stop-color="#FF7408"/>
<stop offset="0.04" stop-color="#FF8A14"/>
<stop offset="0.07" stop-color="#FF9B1D"/>
<stop offset="0.11" stop-color="#FFA724"/>
<stop offset="0.17" stop-color="#FFAE27"/>
<stop offset="0.33" stop-color="#FFB029"/>
<stop offset="0.46" stop-color="#FF9218"/>
<stop offset="0.63" stop-color="#FF6600"/>
<stop offset="0.64" stop-color="#FE5D0F"/>
<stop offset="0.69" stop-color="#FD4A32"/>
<stop offset="0.74" stop-color="#FC3B4E"/>
<stop offset="0.79" stop-color="#FB3062"/>
<stop offset="0.84" stop-color="#FB2A6E"/>
<stop offset="0.89" stop-color="#FB2872"/>
</linearGradient>
<linearGradient id="paint9_linear_1250_199171" x1="1800.19" y1="826.217" x2="1800.19" y2="1078.31" gradientUnits="userSpaceOnUse">
<stop stop-color="#FFEB49" stop-opacity="0.8"/>
<stop offset="0.23" stop-color="#FFC836" stop-opacity="0.59"/>
<stop offset="0.6" stop-color="#FF9319" stop-opacity="0.28"/>
<stop offset="0.87" stop-color="#FF7207" stop-opacity="0.08"/>
<stop offset="1" stop-color="#FF6600" stop-opacity="0"/>
</linearGradient>
<linearGradient id="paint10_linear_1250_199171" x1="1628.87" y1="867.126" x2="1726.31" y2="1060.52" gradientUnits="userSpaceOnUse">
<stop stop-color="#FFEB49"/>
<stop offset="0.45" stop-color="#FF6600"/>
<stop offset="0.54" stop-color="#FF6109"/>
<stop offset="0.69" stop-color="#FF5322"/>
<stop offset="0.82" stop-color="#FF453F"/>
<stop offset="1" stop-color="#FB2872"/>
</linearGradient>
<linearGradient id="paint11_linear_1250_199171" x1="1614" y1="874.622" x2="1711.43" y2="1068.02" gradientUnits="userSpaceOnUse">
<stop stop-color="#FFE500"/>
<stop offset="0.45" stop-color="#FF6D00"/>
<stop offset="0.54" stop-color="#FF6709"/>
<stop offset="0.69" stop-color="#FF5622"/>
<stop offset="0.82" stop-color="#FF453F"/>
<stop offset="1" stop-color="#FB0372"/>
</linearGradient>
<linearGradient id="paint12_linear_1250_199171" x1="1655.68" y1="916.85" x2="1665.5" y2="995.894" gradientUnits="userSpaceOnUse">
<stop stop-color="#FFEB49"/>
<stop offset="0.09" stop-color="#FFE545" stop-opacity="0.96"/>
<stop offset="0.24" stop-color="#FFD63D" stop-opacity="0.84"/>
<stop offset="0.44" stop-color="#FFBD2F" stop-opacity="0.66"/>
<stop offset="0.67" stop-color="#FF9A1C" stop-opacity="0.4"/>
<stop offset="0.94" stop-color="#FF6F05" stop-opacity="0.07"/>
<stop offset="1" stop-color="#FF6600" stop-opacity="0"/>
</linearGradient>
<linearGradient id="paint13_linear_1250_199171" x1="1857.71" y1="1011.24" x2="1704.01" y2="1072.49" gradientUnits="userSpaceOnUse">
<stop offset="0.02" stop-color="#BE0449" stop-opacity="0"/>
<stop offset="0.51" stop-color="#FB2872"/>
<stop offset="0.67" stop-color="#A31C5E"/>
<stop offset="0.83" stop-color="#4C104A"/>
<stop offset="0.94" stop-color="#15093E"/>
<stop offset="1" stop-color="#00073A"/>
</linearGradient>
<linearGradient id="paint14_linear_1250_199171" x1="1771.6" y1="1025.9" x2="1876.5" y2="1066.92" gradientUnits="userSpaceOnUse">
<stop stop-color="#BE0449" stop-opacity="0"/>
<stop offset="0.41" stop-color="#FB2872"/>
<stop offset="1" stop-color="#00073A"/>
</linearGradient>
<radialGradient id="paint15_radial_1250_199171" cx="0" cy="0" r="1" gradientUnits="userSpaceOnUse" gradientTransform="translate(1739.36 1030.36) scale(65.107 65.107)">
<stop stop-color="#FFEB49"/>
<stop offset="0.05" stop-color="#FFE546" stop-opacity="0.96"/>
<stop offset="0.14" stop-color="#FFD73E" stop-opacity="0.85"/>
<stop offset="0.25" stop-color="#FFC031" stop-opacity="0.68"/>
<stop offset="0.38" stop-color="#FFA01F" stop-opacity="0.44"/>
<stop offset="0.53" stop-color="#FF7709" stop-opacity="0.13"/>
<stop offset="0.59" stop-color="#FF6600" stop-opacity="0"/>
</radialGradient>
<linearGradient id="paint16_linear_1250_199171" x1="1782.05" y1="967.698" x2="1786.53" y2="1086.52" gradientUnits="userSpaceOnUse">
<stop offset="0.01" stop-color="#BE0449" stop-opacity="0"/>
<stop offset="0.06" stop-color="#BF054A" stop-opacity="0.04"/>
<stop offset="0.14" stop-color="#C2084C" stop-opacity="0.16"/>
<stop offset="0.23" stop-color="#C70D51" stop-opacity="0.36"/>
<stop offset="0.35" stop-color="#CE1457" stop-opacity="0.63"/>
<stop offset="0.48" stop-color="#D71E5F" stop-opacity="0.97"/>
<stop offset="0.49" stop-color="#D81F60"/>
<stop offset="0.56" stop-color="#D31E5F"/>
<stop offset="0.63" stop-color="#C71D5D"/>
<stop offset="0.7" stop-color="#B31A59"/>
<stop offset="0.77" stop-color="#971754"/>
<stop offset="0.84" stop-color="#73134E"/>
<stop offset="0.91" stop-color="#460E46"/>
<stop offset="0.98" stop-color="#13093D"/>
<stop offset="1" stop-color="#00073A"/>
</linearGradient>
<linearGradient id="paint17_linear_1250_199171" x1="1811.26" y1="945.922" x2="1806.31" y2="1087.41" gradientUnits="userSpaceOnUse">
<stop stop-color="#D81F60" stop-opacity="0"/>
<stop offset="0.11" stop-color="#D81F60" stop-opacity="0.01"/>
<stop offset="0.19" stop-color="#D81F60" stop-opacity="0.06"/>
<stop offset="0.27" stop-color="#D81F60" stop-opacity="0.14"/>
<stop offset="0.35" stop-color="#D81F60" stop-opacity="0.25"/>
<stop offset="0.42" stop-color="#D81F60" stop-opacity="0.39"/>
<stop offset="0.49" stop-color="#D81F60" stop-opacity="0.57"/>
<stop offset="0.55" stop-color="#D81F60" stop-opacity="0.77"/>
<stop offset="0.62" stop-color="#D81F60"/>
<stop offset="0.66" stop-color="#D21E5F"/>
<stop offset="0.71" stop-color="#C21C5C"/>
<stop offset="0.77" stop-color="#A81957"/>
<stop offset="0.83" stop-color="#841551"/>
<stop offset="0.9" stop-color="#551049"/>
<stop offset="0.97" stop-color="#1D0A3F"/>
<stop offset="1" stop-color="#00073A"/>
</linearGradient>
<linearGradient id="paint18_linear_1250_199171" x1="1795.31" y1="932.675" x2="1800.14" y2="1038.79" gradientUnits="userSpaceOnUse">
<stop stop-color="#FFEB49"/>
<stop offset="0.09" stop-color="#FFE745" stop-opacity="0.96"/>
<stop offset="0.24" stop-color="#FFDE3D" stop-opacity="0.84"/>
<stop offset="0.44" stop-color="#FFCF2F" stop-opacity="0.66"/>
<stop offset="0.67" stop-color="#FFBB1C" stop-opacity="0.4"/>
<stop offset="0.94" stop-color="#FFA105" stop-opacity="0.07"/>
<stop offset="1" stop-color="#FF9C00" stop-opacity="0"/>
</linearGradient>
<linearGradient id="paint19_linear_1250_199171" x1="1858.96" y1="846.505" x2="1856.64" y2="869.513" gradientUnits="userSpaceOnUse">
<stop offset="0.16" stop-color="#A030B9"/>
<stop offset="0.88" stop-color="#00073A"/>
</linearGradient>
<linearGradient id="paint20_linear_1250_199171" x1="1858.56" y1="849.512" x2="1854.75" y2="866.357" gradientUnits="userSpaceOnUse">
<stop stop-color="#A030B9"/>
<stop offset="0.88" stop-color="#00073A"/>
</linearGradient>
<linearGradient id="paint21_linear_1250_199171" x1="1824.38" y1="835.727" x2="1820.82" y2="851.956" gradientUnits="userSpaceOnUse">
<stop stop-color="#A030B9"/>
<stop offset="0.88" stop-color="#00073A"/>
</linearGradient>
<linearGradient id="paint0_linear_1247_199171" x1="966.595" y1="1030.2" x2="950.658" y2="753.052" gradientUnits="userSpaceOnUse">
    <stop stop-color="#210340"/>
    <stop offset="0.23" stop-color="#29074C"/>
    <stop offset="0.65" stop-color="#3E126D"/>
    <stop offset="1" stop-color="#541D8F"/>
</linearGradient>
<linearGradient id="paint1_linear_1247_199171" x1="959.146" y1="849.402" x2="963.255" y2="510.447" gradientUnits="userSpaceOnUse">
    <stop stop-color="#210340"/>
    <stop offset="0.23" stop-color="#29074C"/>
    <stop offset="0.65" stop-color="#3E126D"/>
    <stop offset="1" stop-color="#541D8F"/>
</linearGradient>
<linearGradient id="paint2_linear_1247_199171" x1="680.985" y1="421.79" x2="678.079" y2="299.756" gradientUnits="userSpaceOnUse">
    <stop stop-color="#210340"/>
    <stop offset="0.23" stop-color="#29074C"/>
    <stop offset="0.65" stop-color="#3E126D"/>
    <stop offset="1" stop-color="#541D8F"/>
</linearGradient>
<linearGradient id="paint3_linear_1247_199171" x1="1613.85" y1="317.01" x2="1616.76" y2="163.014" gradientUnits="userSpaceOnUse">
    <stop stop-color="#210340"/>
    <stop offset="0.23" stop-color="#29074C"/>
    <stop offset="0.65" stop-color="#3E126D"/>
    <stop offset="1" stop-color="#541D8F"/>
</linearGradient>
<linearGradient id="paint4_linear_1247_199171" x1="415.591" y1="296.11" x2="418.496" y2="142.085" gradientUnits="userSpaceOnUse">
    <stop stop-color="#210340"/>
    <stop offset="0.23" stop-color="#29074C"/>
    <stop offset="0.65" stop-color="#3E126D"/>
    <stop offset="1" stop-color="#541D8F"/>
</linearGradient>
<clipPath id="clip0_1250_199171">
<rect width="1920" height="1080" fill="white" transform="translate(0 0.296875)"/>
</clipPath>
</defs>
</svg>